# xmcd
#
# Track frame offsets:
#	150
#	19863
#	40379
#	64169
#	84222
#	107259
#	123092
#	140601
#	163073
#	184575
#	203570
#
# Disc length: 3021 seconds
#
# Revision: 2
# Processed by: cddbd v1.5.2PL0 Copyright (c) Steve Scherf et al.
# Submitted via: EZCDAudioConverter 8.0.2.1
#
DISCID=870bcb0b
DTITLE=Various Artist - st. Nguyễn Hồng Thuận. Những Hạt Nắng Trong Mưa
DYEAR=2011
DGENRE=World Pop
TTITLE0=Nguyễn Hồng Thuận - Ánh trăng vỡ
TTITLE1=Nguyễn Hồng Thuận, Hồ Ngọc Hà - Về với yêu thương
TTITLE2=Nguyễn Hồng Thuận - Lời ru một đời
TTITLE3=Nguyễn Hồng Thuận, Trương Thế Vinh - Đường chân trời
TTITLE4=Nguyễn Hồng Thuận - Chuyện tình cây và lá
TTITLE5=Nguyễn Hồng Thuận, Lam Trường - Ngày mai trời lại sáng
TTITLE6=Hồ Ngọc Hà - Một lần cuối thôi
TTITLE7=Nguyễn Hồng Thuận, Ruby Bảo An, Châu Anh - Cào cào bay trong gió
TTITLE8=Nguyễn Hồng Thuận - Nỗi đau tràn về
TTITLE9=Nguyễn Hồng Thuận, Trần Nguyên Chương - Quay ngược thời gian
TTITLE10=Nguyễn Hồng Thuận - Chú rể
EXTD=
EXTT0=
EXTT1=
EXTT2=
EXTT3=
EXTT4=
EXTT5=
EXTT6=
EXTT7=
EXTT8=
EXTT9=
EXTT10=
PLAYORDER=
